<?xml version="1.0" standalone="no"?>
<!DOCTYPE svg PUBLIC "-//W3C//DTD SVG 20010904//EN"
 "http://www.w3.org/TR/2001/REC-SVG-20010904/DTD/svg10.dtd">
<svg version="1.0" xmlns="http://www.w3.org/2000/svg"
 width="225.000000pt" height="225.000000pt" viewBox="0 0 225.000000 225.000000"
 preserveAspectRatio="xMidYMid meet">

<g transform="translate(0.000000,225.000000) scale(0.100000,-0.100000)"
fill="#1F8B9C" stroke="none">
<path d="M926 2174 c-510 -101 -866 -533 -866 -1049 0 -595 470 -1065 1065
-1065 595 0 1065 470 1065 1065 0 519 -360 953 -873 1050 -97 18 -296 18 -391
-1z m-216 -985 c0 -203 -7 -230 -67 -276 -35 -27 -110 -41 -157 -29 -37 9 -87
56 -107 101 -27 59 -25 65 25 65 39 0 45 -3 56 -30 23 -56 92 -70 136 -29 24
22 24 26 24 201 l0 178 45 0 45 0 0 -181z m510 90 c0 -77 2 -90 14 -80 47 39
138 31 189 -17 42 -40 57 -75 57 -135 0 -62 -25 -108 -79 -144 -47 -32 -135
-32 -181 0 -78 52 -89 93 -90 310 l0 157 45 0 45 0 0 -91z m572 -75 c101 -52
126 -181 52 -264 -44 -49 -81 -64 -147 -58 -65 5 -110 34 -137 88 -77 152 81
311 232 234z m-912 -113 c5 -105 7 -114 26 -122 14 -5 29 -2 43 7 19 14 21 24
21 125 l0 109 45 0 45 0 0 -117 c0 -99 -3 -123 -20 -150 -25 -41 -68 -63 -125
-63 -38 0 -52 6 -83 34 l-37 34 -3 132 -4 131 44 -3 43 -3 5 -114z"/>
<path d="M1274 1126 c-39 -17 -58 -63 -42 -106 12 -36 35 -50 78 -50 43 0 66
14 78 50 16 45 -2 89 -44 106 -39 16 -32 16 -70 0z"/>
<path d="M1690 1133 c-58 -22 -77 -88 -40 -135 50 -64 150 -22 150 62 0 43
-69 89 -110 73z"/>
</g>
</svg>
